# xmcd CD database file
#
# Track frame offsets:
#	150
#	26760
#	39145
#	55947
#	77438
#	92148
#	104581
#	116811
#	130490
#	144029
#	156360
#	172151
#	187935
#	207710
#	223430
#	235884
#	248536
#	266367
#	281892
#	296406
#
# Disc length: 4124 seconds
#
# Revision: 1
# Processed by: cddbd v1.5.2PL0 Copyright (c) Steve Scherf et al.
# Submitted via: CDex 1.70beta2
#
DISCID=2d101a14
DTITLE=Jazz in Paris - Disc 5 - Les Tricheurs
DYEAR=1900
DGENRE=Jazz
TTITLE0=Chet Baker Quartet - I'll Remember April
TTITLE1=René Urteger Trio - Bouncing with Bud
TTITLE2=Maurice Meunier Quartet - (Back Home Again in) Indiana
TTITLE3=Albert Nicholas and His New Orleans Friends - Basin Street Blues
TTITLE4=Freddy Johnson, Arthur Briggs and Their All-Stars Orchestra - Sweet Georgia Brown
TTITLE5=Sidney Bechet and His Orchestra - I can't believe That You're in Love with Me
TTITLE6=Louis Armstrong and son Orchestre  - Saint Louis Blues
TTITLE7=Quintette du Hot Club de France - Them There Eyes
TTITLE8=Les Amis de Django - Swing 42
TTITLE9=Gus Viseur - Swing Valse
TTITLE10=Jimmy Archey avec Michel Attenoux and son Orchestre - Swanee River
TTITLE11=Bernard Pfeiffer - Cheek to Cheel
TTITLE12=Guy Lafitte Quintet - I've Got the World on a String
TTITLE13=Bobby Jaspar Quintet - Misterioso
TTITLE14=Art Blakey's Jazz Messengers - (Générique) Des femmes disparaissent
TTITLE15=Sonny Criss Quartet - Don't Blame Me
TTITLE16=Pierre Michelot and son Orchestre - Elephant green
TTITLE17=Slide Hampton and His Orchestra - A Moment's Notice
TTITLE18=Jazz at the Philharmonic - Les Tricheurs
TTITLE19=Miles Davis Quintet - Florence sur les Champs Elysées
EXTD=
EXTT0=
EXTT1=
EXTT2=
EXTT3=
EXTT4=
EXTT5=
EXTT6=
EXTT7=
EXTT8=
EXTT9=
EXTT10=
EXTT11=
EXTT12=
EXTT13=
EXTT14=
EXTT15=
EXTT16=
EXTT17=
EXTT18=
EXTT19=
PLAYORDER=
